<svg width="87" height="19" viewBox="0 0 87 19" fill="none" xmlns="http://www.w3.org/2000/svg">
<path d="M0.92 18V0.959999H3.608V15.624H12.752V18H0.92ZM28.7703 18.12C27.5383 18.12 26.4263 17.88 25.4343 17.4C24.4423 16.92 23.5863 16.272 22.8663 15.456C22.1463 14.624 21.5863 13.696 21.1863 12.672C20.8023 11.632 20.6103 10.568 20.6103 9.48C20.6103 8.344 20.8183 7.264 21.2343 6.24C21.6503 5.2 22.2263 4.28 22.9623 3.48C23.6983 2.664 24.5623 2.024 25.5543 1.56C26.5623 1.08 27.6503 0.839999 28.8183 0.839999C30.0343 0.839999 31.1383 1.088 32.1303 1.584C33.1383 2.08 33.9943 2.744 34.6983 3.576C35.4183 4.408 35.9703 5.336 36.3543 6.36C36.7543 7.384 36.9543 8.432 36.9543 9.504C36.9543 10.64 36.7463 11.728 36.3303 12.768C35.9303 13.792 35.3623 14.712 34.6263 15.528C33.8903 16.328 33.0183 16.96 32.0103 17.424C31.0183 17.888 29.9383 18.12 28.7703 18.12ZM23.3463 9.48C23.3463 10.28 23.4743 11.056 23.7303 11.808C23.9863 12.56 24.3463 13.232 24.8103 13.824C25.2903 14.4 25.8663 14.856 26.5383 15.192C27.2103 15.528 27.9623 15.696 28.7943 15.696C29.6583 15.696 30.4263 15.52 31.0983 15.168C31.7703 14.816 32.3303 14.344 32.7783 13.752C33.2423 13.144 33.5943 12.472 33.8343 11.736C34.0743 10.984 34.1943 10.232 34.1943 9.48C34.1943 8.68 34.0663 7.912 33.8103 7.176C33.5703 6.424 33.2103 5.76 32.7303 5.184C32.2503 4.592 31.6743 4.128 31.0023 3.792C30.3463 3.456 29.6103 3.288 28.7943 3.288C27.9303 3.288 27.1623 3.464 26.4903 3.816C25.8183 4.168 25.2503 4.64 24.7863 5.232C24.3223 5.824 23.9623 6.488 23.7063 7.224C23.4663 7.96 23.3463 8.712 23.3463 9.48ZM53.8972 18.12C52.7772 18.12 51.7292 17.888 50.7532 17.424C49.7772 16.96 48.9212 16.32 48.1852 15.504C47.4652 14.688 46.8972 13.76 46.4812 12.72C46.0812 11.68 45.8812 10.576 45.8812 9.408C45.8812 8.24 46.0812 7.144 46.4812 6.12C46.8972 5.096 47.4652 4.184 48.1852 3.384C48.9212 2.584 49.7772 1.96 50.7532 1.512C51.7452 1.064 52.8252 0.839999 53.9932 0.839999C55.6092 0.839999 56.9692 1.184 58.0732 1.872C59.1932 2.544 60.0332 3.44 60.5932 4.56L58.5292 6.048C58.0812 5.12 57.4412 4.424 56.6092 3.96C55.7932 3.496 54.8972 3.264 53.9212 3.264C53.1212 3.264 52.3932 3.432 51.7372 3.768C51.0812 4.104 50.5132 4.568 50.0332 5.16C49.5692 5.736 49.2172 6.4 48.9772 7.152C48.7372 7.888 48.6172 8.664 48.6172 9.48C48.6172 10.344 48.7532 11.152 49.0252 11.904C49.2972 12.656 49.6812 13.32 50.1772 13.896C50.6732 14.456 51.2572 14.896 51.9292 15.216C52.6012 15.536 53.3292 15.696 54.1132 15.696C55.0412 15.696 55.9212 15.464 56.7532 15C57.6012 14.52 58.3932 13.808 59.1292 12.864V15.6C57.6412 17.28 55.8972 18.12 53.8972 18.12ZM58.8652 11.376H55.2892V9.384H61.1212V18H58.8652V11.376ZM78.4672 18.12C77.2352 18.12 76.1232 17.88 75.1312 17.4C74.1392 16.92 73.2832 16.272 72.5632 15.456C71.8432 14.624 71.2832 13.696 70.8832 12.672C70.4992 11.632 70.3072 10.568 70.3072 9.48C70.3072 8.344 70.5152 7.264 70.9312 6.24C71.3472 5.2 71.9232 4.28 72.6592 3.48C73.3952 2.664 74.2592 2.024 75.2512 1.56C76.2592 1.08 77.3472 0.839999 78.5152 0.839999C79.7312 0.839999 80.8352 1.088 81.8272 1.584C82.8352 2.08 83.6912 2.744 84.3952 3.576C85.1152 4.408 85.6672 5.336 86.0512 6.36C86.4512 7.384 86.6512 8.432 86.6512 9.504C86.6512 10.64 86.4432 11.728 86.0272 12.768C85.6272 13.792 85.0592 14.712 84.3232 15.528C83.5872 16.328 82.7152 16.96 81.7072 17.424C80.7152 17.888 79.6352 18.12 78.4672 18.12ZM73.0432 9.48C73.0432 10.28 73.1712 11.056 73.4272 11.808C73.6832 12.56 74.0432 13.232 74.5072 13.824C74.9872 14.4 75.5632 14.856 76.2352 15.192C76.9072 15.528 77.6592 15.696 78.4912 15.696C79.3552 15.696 80.1232 15.52 80.7952 15.168C81.4672 14.816 82.0272 14.344 82.4752 13.752C82.9392 13.144 83.2912 12.472 83.5312 11.736C83.7712 10.984 83.8912 10.232 83.8912 9.48C83.8912 8.68 83.7632 7.912 83.5072 7.176C83.2672 6.424 82.9072 5.76 82.4272 5.184C81.9472 4.592 81.3712 4.128 80.6992 3.792C80.0432 3.456 79.3072 3.288 78.4912 3.288C77.6272 3.288 76.8592 3.464 76.1872 3.816C75.5152 4.168 74.9472 4.64 74.4832 5.232C74.0192 5.824 73.6592 6.488 73.4032 7.224C73.1632 7.96 73.0432 8.712 73.0432 9.48Z" fill="white"/>
</svg>
